<svg width="130" height="130" viewBox="0 0 130 130" fill="none" xmlns="http://www.w3.org/2000/svg">
<rect x="0.5" y="0.5" width="129" height="129" rx="64.5" stroke="#5200D9"/>
<path d="M42.2045 100V90.8636L66.4432 67.1023C68.7614 64.7614 70.6932 62.6818 72.2386 60.8636C73.7841 59.0455 74.9432 57.2841 75.7159 55.5795C76.4886 53.875 76.875 52.0568 76.875 50.125C76.875 47.9205 76.375 46.0341 75.375 44.4659C74.375 42.875 73 41.6477 71.25 40.7841C69.5 39.9205 67.5114 39.4886 65.2841 39.4886C62.9886 39.4886 60.9773 39.9659 59.25 40.9205C57.5227 41.8523 56.1818 43.1818 55.2273 44.9091C54.2955 46.6364 53.8295 48.6932 53.8295 51.0795H41.7955C41.7955 46.6477 42.8068 42.7955 44.8295 39.5227C46.8523 36.25 49.6364 33.7159 53.1818 31.9205C56.75 30.125 60.8409 29.2273 65.4545 29.2273C70.1364 29.2273 74.25 30.1023 77.7955 31.8523C81.3409 33.6023 84.0909 36 86.0455 39.0455C88.0227 42.0909 89.0114 45.5682 89.0114 49.4773C89.0114 52.0909 88.5114 54.6591 87.5114 57.1818C86.5114 59.7045 84.75 62.5 82.2273 65.5682C79.7273 68.6364 76.2159 72.3523 71.6932 76.7159L59.6591 88.9545V89.4318H90.0682V100H42.2045Z" fill="#5200D9" fill-opacity="0.35"/>
</svg>
