<svg width="130" height="130" viewBox="0 0 130 130" fill="none" xmlns="http://www.w3.org/2000/svg">
<rect x="0.5" y="0.5" width="129" height="129" rx="64.5" stroke="#5200D9"/>
<path d="M67.2614 100.955C62.3523 100.955 57.9886 100.114 54.1705 98.4318C50.375 96.75 47.375 94.4091 45.1705 91.4091C42.9659 88.4091 41.7955 84.9432 41.6591 81.0114H54.4773C54.5909 82.8977 55.2159 84.5455 56.3523 85.9545C57.4886 87.3409 59 88.4205 60.8864 89.1932C62.7727 89.9659 64.8864 90.3523 67.2273 90.3523C69.7273 90.3523 71.9432 89.9205 73.875 89.0568C75.8068 88.1705 77.3182 86.9432 78.4091 85.375C79.5 83.8068 80.0341 82 80.0114 79.9545C80.0341 77.8409 79.4886 75.9773 78.375 74.3636C77.2614 72.75 75.6477 71.4886 73.5341 70.5795C71.4432 69.6705 68.9205 69.2159 65.9659 69.2159H59.7955V59.4659H65.9659C68.3977 59.4659 70.5227 59.0455 72.3409 58.2045C74.1818 57.3636 75.625 56.1818 76.6705 54.6591C77.7159 53.1136 78.2273 51.3295 78.2045 49.3068C78.2273 47.3295 77.7841 45.6136 76.875 44.1591C75.9886 42.6818 74.7273 41.5341 73.0909 40.7159C71.4773 39.8977 69.5795 39.4886 67.3977 39.4886C65.2614 39.4886 63.2841 39.875 61.4659 40.6477C59.6477 41.4205 58.1818 42.5227 57.0682 43.9545C55.9545 45.3636 55.3636 47.0455 55.2955 49H43.125C43.2159 45.0909 44.3409 41.6591 46.5 38.7045C48.6818 35.7273 51.5909 33.4091 55.2273 31.75C58.8636 30.0682 62.9432 29.2273 67.4659 29.2273C72.125 29.2273 76.1705 30.1023 79.6023 31.8523C83.0568 33.5795 85.7273 35.9091 87.6136 38.8409C89.5 41.7727 90.4432 45.0114 90.4432 48.5568C90.4659 52.4886 89.3068 55.7841 86.9659 58.4432C84.6477 61.1023 81.6023 62.8409 77.8295 63.6591V64.2045C82.7386 64.8864 86.5 66.7045 89.1136 69.6591C91.75 72.5909 93.0568 76.2386 93.0341 80.6023C93.0341 84.5114 91.9205 88.0114 89.6932 91.1023C87.4886 94.1705 84.4432 96.5795 80.5568 98.3295C76.6932 100.08 72.2614 100.955 67.2614 100.955Z" fill="#5200D9" fill-opacity="0.35"/>
</svg>
